<?xml version="1.0" standalone="no"?>
<!DOCTYPE svg PUBLIC "-//W3C//DTD SVG 20010904//EN"
 "http://www.w3.org/TR/2001/REC-SVG-20010904/DTD/svg10.dtd">
<svg version="1.0" xmlns="http://www.w3.org/2000/svg"
 width="2000.000000pt" height="2000.000000pt" viewBox="0 0 2000.000000 2000.000000"
 preserveAspectRatio="xMidYMid meet">

<g transform="translate(0.000000,2000.000000) scale(0.100000,-0.100000)"
fill="#000000" stroke="none">
<path d="M5280 9095 l0 -4825 560 0 561 0 -4 3128 c-3 2230 -7 3189 -15 3342
-7 118 -28 496 -47 839 -19 343 -35 642 -35 663 0 37 2 39 26 36 24 -3 142
-182 974 -1473 l947 -1470 64 -3 c35 -2 632 -1 1327 3 l1262 7 0 459 0 459
-928 0 -929 0 -1179 1830 -1179 1830 -702 0 -703 0 0 -4825z"/>
<path d="M11800 10948 c0 -1752 4 -3088 10 -3253 20 -579 64 -1570 75 -1697
l6 -68 -28 0 c-26 0 -76 75 -793 1188 l-766 1187 -1412 3 -1412 2 0 -465 0
-465 1013 0 1014 0 726 -1128 c399 -620 850 -1318 1000 -1552 l275 -425 711
-3 711 -2 0 4825 0 4825 -565 0 -565 0 0 -2972z"/>
<path d="M9240 9201 c-71 -15 -138 -67 -159 -124 -17 -45 -13 -124 9 -166 25
-50 66 -84 154 -128 109 -54 136 -78 136 -118 0 -77 -104 -98 -238 -50 -38 14
-72 25 -76 25 -3 0 -6 -31 -6 -69 0 -65 1 -69 28 -80 45 -18 114 -30 169 -31
168 -1 272 81 273 212 0 96 -41 146 -172 215 -48 24 -99 54 -113 65 -33 26
-33 71 0 103 30 31 79 33 166 5 35 -10 67 -16 71 -12 3 4 16 30 27 59 l20 51
-38 15 c-78 32 -178 42 -251 28z"/>
<path d="M7570 8835 l0 -365 71 0 72 0 -5 275 c-5 263 -5 275 12 248 9 -15 81
-139 159 -275 l143 -248 99 0 99 0 -2 363 -3 362 -68 3 -68 3 3 -271 c2 -148
1 -270 -2 -270 -3 1 -75 122 -160 270 l-155 270 -97 0 -98 0 0 -365z"/>
<path d="M8559 9173 c-11 -28 -182 -511 -225 -635 l-23 -68 83 0 83 0 24 83
24 82 136 3 135 3 25 -83 24 -83 84 -3 c65 -2 82 0 79 10 -3 7 -60 172 -129
366 l-124 352 -93 0 c-92 0 -93 0 -103 -27z m174 -320 l25 -83 -94 0 c-52 0
-94 3 -94 8 0 4 9 34 19 67 10 33 31 101 46 150 l28 90 22 -75 c12 -41 33
-112 48 -157z"/>
<path d="M9610 9154 c0 -44 1 -46 45 -65 l45 -20 0 -235 0 -234 -45 -22 c-43
-21 -45 -24 -45 -65 l0 -43 165 0 165 0 0 44 c0 43 -1 45 -45 63 l-45 18 0
238 0 238 45 20 c44 19 45 21 45 64 l0 45 -165 0 -165 0 0 -46z"/>
<path d="M10060 8835 l0 -365 80 0 80 0 0 140 0 140 39 0 40 0 86 -140 87
-140 85 0 c65 0 82 3 77 13 -5 6 -52 77 -107 157 l-98 145 23 15 c47 29 97 90
104 125 13 69 0 142 -32 182 -58 72 -136 93 -341 93 l-123 0 0 -365z m307 215
c59 -35 53 -128 -10 -158 -15 -8 -52 -16 -82 -19 l-55 -6 0 102 0 101 58 0
c39 0 67 -6 89 -20z"/>
</g>
</svg>
